<?xml version="1.0" encoding="UTF-8"?><svg id="Layer_1" xmlns="http://www.w3.org/2000/svg" viewBox="0 0 358.09 286.95"><path d="M73.65,2.69C90.05-.12,106.86-.05,123.53.02c41.23.19,82.45.38,123.68.57,20.74.1,42.07.3,61.28,8.13,21.26,8.65,38.64,27.03,44.78,49.14,3.21,11.57,3.4,23.73,3.57,35.74,0,26.86.76,53.74,1.14,80.6.29,20.28.48,41.13-6.75,60.08-9.14,23.99-30.45,42.97-55.33,49.3-14.61,3.72-29.91,3.25-44.98,2.89-42.06-1.02-84.15-1.1-126.21.05-21.5.59-43.38,1.46-64.14-4.17-23.8-6.45-40.95-21.79-51.86-43.52C.22,221.9,1.57,202.75,1.24,184.36.67,153.38-.49,122.33.23,91.34c.51-21.84,5.37-44.59,19.57-61.19C31.91,16.01,49.72,7.71,67.92,3.79c1.9-.41,3.81-.78,5.73-1.1ZM76.4,23.69c-10.14,1.38-20.45,4.93-28.31,11.49l98.6,99.27c19.14,15,46.1,14.97,65.22,0l98.59-98.71c.34-1.93-9.29-6.54-11.22-7.38-6.21-2.69-12.33-4.19-19.07-4.93l-203.81.25ZM327.02,52.81c-3.94-.74-17.6,16.39-19.95,18.74-10.96,10.96-21.92,21.91-32.88,32.87-15.51,15.51-31.02,31.01-46.54,46.53-27.79,23.11-68.92,23.28-96.71,0,0,0-97.51-97.49-97.51-97.49-1.2-.47-1.56-.85-2.53-.12-4.77,3.56-4.38,12.64-4.96,17.96-2.6,23.71-1.44,47.54-2.13,71.33-.62,21.65-1.25,43.36.2,65,1.99,29.6,24.25,52.77,53.67,55.83l202.52.04c29.22-2.48,52.17-25.87,54.34-55.16,2.06-27.8,2.72-55.72,1.78-83.58-.48-14.19-.88-28.39-.87-42.59,0-8.39,2.83-26.15-8.32-29.33-.03,0-.07-.02-.1-.02Z" fill="#156aff"/></svg>