<?xml version="1.0" encoding="UTF-8"?><svg id="Layer_1" xmlns="http://www.w3.org/2000/svg" viewBox="0 0 411.07 309.2"><path d="M410.5,117.87c.74,23.9.76,50.36,0,74.25-1.86,58.16-4.01,108.07-73.76,113.37-69.3,5.27-141.1,4.07-210.46,1.57-54.61-1.97-107.72,5.35-119.8-62.08C-3.21,190.88-.68,131.48,5.26,76.95,9.72,35.97,29.44,7.54,72.84,3.7,107.13.67,143.57,1.04,178.11.53c52.41-.76,108.78-1.37,161.02,3.17,68.24,5.93,69.63,58.15,71.37,114.17ZM182.3,23.89c-22.05.3-44.41,1.23-66.42,2.15-16.71.7-45.92-.38-60.74,5.45-29.71,11.67-27.27,58.82-28.16,85.18-1.28,37.86-2.8,83.01,2.53,120.44,5.8,40.72,25.96,42.97,62.43,45.28,65.94,4.17,134.22,3.34,200.13.73,19.1-.75,57.64,1.02,72.93-9.21,21.48-14.36,19.99-57.39,20.8-80.58,1.04-29.87,1.61-60.39.02-90.26-2.03-38.33-1.6-71-47.48-75.41-49.31-4.74-106.25-4.44-156.04-3.77ZM167.11,85.33c2.31-.4,4.67-.18,7.01-.21,32.9,15.91,64.71,34.68,96.79,52.38,10.63,8.63,8.54,21.34-2.57,28.43-28.03,17.9-62.22,31.3-90.9,48.7-10.55,4.25-21.73-2.9-22.86-14.13-3.19-31.62,2.37-68.43-.01-100.6.56-6.42,6.1-13.47,12.56-14.57ZM178.48,113.88v72.66l66.97-35.14-66.97-37.52Z" fill="#1400f4"/></svg>